<svg width="20" height="20" viewBox="0 0 20 20" fill="none" xmlns="http://www.w3.org/2000/svg">
<path d="M15.6251 13.125V5C15.6251 4.83424 15.5593 4.67527 15.442 4.55806C15.3248 4.44085 15.1659 4.375 15.0001 4.375H6.8751C6.70934 4.375 6.55037 4.44085 6.43316 4.55806C6.31595 4.67527 6.2501 4.83424 6.2501 5C6.2501 5.16576 6.31595 5.32473 6.43316 5.44194C6.55037 5.55915 6.70934 5.625 6.8751 5.625H13.4915L4.55792 14.5578C4.44064 14.6751 4.37476 14.8341 4.37476 15C4.37476 15.1659 4.44064 15.3249 4.55792 15.4422C4.67519 15.5595 4.83425 15.6253 5.0001 15.6253C5.16596 15.6253 5.32502 15.5595 5.44229 15.4422L14.3751 6.50859V13.125C14.3751 13.2908 14.441 13.4497 14.5582 13.5669C14.6754 13.6842 14.8343 13.75 15.0001 13.75C15.1659 13.75 15.3248 13.6842 15.442 13.5669C15.5593 13.4497 15.6251 13.2908 15.6251 13.125Z" fill="#FAFAFA"/>
</svg>
